<svg id="Layer_1" data-name="Layer 1" xmlns="http://www.w3.org/2000/svg" viewBox="0 0 304.09 305.42"><defs><style>.cls-1{fill:#221e1f}</style></defs><path class="cls-1" d="M127.93 305.42H14.55A14.56 14.56 0 010 290.87V177.49a14.57 14.57 0 0114.55-14.55h113.38a14.56 14.56 0 0114.55 14.55v1.3a14.56 14.56 0 01-14.55 14.55H30.71V275h97.22a14.56 14.56 0 0114.55 14.55v1.3a14.56 14.56 0 01-14.55 14.57zM14.55 163.69a13.81 13.81 0 00-13.8 13.8v113.38a13.81 13.81 0 0013.8 13.8h113.38a13.81 13.81 0 0013.8-13.8v-1.3a13.81 13.81 0 00-13.8-13.8H30v-83.18h98a13.81 13.81 0 0013.8-13.8v-1.3a13.81 13.81 0 00-13.8-13.8zm274.66 141.73H176.49a14.89 14.89 0 01-14.88-14.88V177.82a14.89 14.89 0 0114.88-14.88h112.72a14.89 14.89 0 0114.88 14.88v.64a14.89 14.89 0 01-14.88 14.88h-96.89V275h96.89a14.89 14.89 0 0114.88 14.88v.64a14.89 14.89 0 01-14.88 14.9zM176.49 163.69a14.15 14.15 0 00-14.13 14.13v112.72a14.15 14.15 0 0014.13 14.13h112.72a14.15 14.15 0 0014.13-14.13v-.64a14.15 14.15 0 00-14.13-14.13h-97.64v-83.18h97.64a14.14 14.14 0 0014.13-14.13v-.64a14.15 14.15 0 00-14.13-14.13z"/><path class="cls-1" d="M289.54 249.38H263a14.56 14.56 0 01-14.55-14.55v-1.3A14.56 14.56 0 01263 219h26.52a14.56 14.56 0 0114.55 14.55v1.3a14.56 14.56 0 01-14.53 14.53zM263 219.73a13.81 13.81 0 00-13.8 13.8v1.3a13.81 13.81 0 0013.8 13.8h26.52a13.81 13.81 0 0013.8-13.8v-1.3a13.81 13.81 0 00-13.8-13.8zm26.61-77.25H176.09A14.49 14.49 0 01161.61 128V14.48A14.49 14.49 0 01176.09 0h113.52a14.49 14.49 0 0114.48 14.48v1.45a14.49 14.49 0 01-14.48 14.47h-97.29v81.68h97.29a14.49 14.49 0 0114.48 14.48V128a14.49 14.49 0 01-14.48 14.48zM176.09.75a13.75 13.75 0 00-13.73 13.73V128a13.75 13.75 0 0013.73 13.73h113.52A13.75 13.75 0 00303.34 128v-1.44a13.75 13.75 0 00-13.73-13.73h-98V29.65h98a13.74 13.74 0 0013.73-13.72v-1.45A13.75 13.75 0 00289.61.75zM71.24 142.48a71.24 71.24 0 1171.24-71.24 71.32 71.32 0 01-71.24 71.24zm0-141.73a70.49 70.49 0 1070.49 70.49A70.57 70.57 0 0071.24.75zm0 111.73a41.24 41.24 0 1141.24-41.24 41.29 41.29 0 01-41.24 41.24zm0-81.73a40.49 40.49 0 1040.49 40.49 40.53 40.53 0 00-40.49-40.49zm56.69 218.63h-26.52a14.56 14.56 0 01-14.55-14.55v-1.3A14.56 14.56 0 01101.41 219h26.52a14.56 14.56 0 0114.55 14.55v1.3a14.56 14.56 0 01-14.55 14.53zm-26.52-29.65a13.81 13.81 0 00-13.8 13.8v1.3a13.81 13.81 0 0013.8 13.8h26.52a13.81 13.81 0 0013.8-13.8v-1.3a13.81 13.81 0 00-13.8-13.8z"/></svg>