<svg id="Layer_1" data-name="Layer 1" xmlns="http://www.w3.org/2000/svg" viewBox="0 0 304.09 305.42"><defs><style>.cls-1{fill:#221e1f;}</style></defs><title>logo</title><path class="cls-1" d="M127.93,305.42H14.55A14.56,14.56,0,0,1,0,290.87V177.49a14.57,14.57,0,0,1,14.55-14.55H127.93a14.56,14.56,0,0,1,14.55,14.55v1.3a14.56,14.56,0,0,1-14.55,14.55H30.71V275h97.22a14.56,14.56,0,0,1,14.55,14.55v1.3A14.56,14.56,0,0,1,127.93,305.42ZM14.55,163.69a13.81,13.81,0,0,0-13.8,13.8V290.87a13.81,13.81,0,0,0,13.8,13.8H127.93a13.81,13.81,0,0,0,13.8-13.8v-1.3a13.81,13.81,0,0,0-13.8-13.8H30V192.59h98a13.81,13.81,0,0,0,13.8-13.8v-1.3a13.81,13.81,0,0,0-13.8-13.8Z" transform="translate(0 0)"/><path class="cls-1" d="M289.21,305.42H176.49a14.89,14.89,0,0,1-14.88-14.88V177.82a14.89,14.89,0,0,1,14.88-14.88H289.21a14.89,14.89,0,0,1,14.88,14.88v.64a14.89,14.89,0,0,1-14.88,14.88H192.32V275h96.89a14.89,14.89,0,0,1,14.88,14.88v.64A14.89,14.89,0,0,1,289.21,305.42ZM176.49,163.69a14.15,14.15,0,0,0-14.13,14.13V290.54a14.15,14.15,0,0,0,14.13,14.13H289.21a14.15,14.15,0,0,0,14.13-14.13v-.64a14.15,14.15,0,0,0-14.13-14.13H191.57V192.59h97.64a14.14,14.14,0,0,0,14.13-14.13v-.64a14.15,14.15,0,0,0-14.13-14.13Z" transform="translate(0 0)"/><path class="cls-1" d="M289.54,249.38H263a14.56,14.56,0,0,1-14.55-14.55v-1.3A14.56,14.56,0,0,1,263,219h26.52a14.56,14.56,0,0,1,14.55,14.55v1.3A14.56,14.56,0,0,1,289.54,249.38ZM263,219.73a13.81,13.81,0,0,0-13.8,13.8v1.3a13.81,13.81,0,0,0,13.8,13.8h26.52a13.81,13.81,0,0,0,13.8-13.8v-1.3a13.81,13.81,0,0,0-13.8-13.8Z" transform="translate(0 0)"/><path class="cls-1" d="M289.61,142.48H176.09A14.49,14.49,0,0,1,161.61,128V14.48A14.49,14.49,0,0,1,176.09,0H289.61a14.49,14.49,0,0,1,14.48,14.48v1.45A14.49,14.49,0,0,1,289.61,30.4H192.32v81.68h97.29a14.49,14.49,0,0,1,14.48,14.48V128A14.49,14.49,0,0,1,289.61,142.48ZM176.09.75a13.75,13.75,0,0,0-13.73,13.73V128a13.75,13.75,0,0,0,13.73,13.73H289.61A13.75,13.75,0,0,0,303.34,128v-1.44a13.75,13.75,0,0,0-13.73-13.73h-98V29.65h98a13.74,13.74,0,0,0,13.73-13.72V14.48A13.75,13.75,0,0,0,289.61.75Z" transform="translate(0 0)"/><path class="cls-1" d="M71.24,142.48a71.24,71.24,0,1,1,71.24-71.24A71.32,71.32,0,0,1,71.24,142.48ZM71.24.75a70.49,70.49,0,1,0,70.49,70.49A70.57,70.57,0,0,0,71.24.75Zm0,111.73a41.24,41.24,0,1,1,41.24-41.24A41.29,41.29,0,0,1,71.24,112.48Zm0-81.73a40.49,40.49,0,1,0,40.49,40.49A40.53,40.53,0,0,0,71.24,30.75Z" transform="translate(0 0)"/><path class="cls-1" d="M127.93,249.38H101.41a14.56,14.56,0,0,1-14.55-14.55v-1.3A14.56,14.56,0,0,1,101.41,219h26.52a14.56,14.56,0,0,1,14.55,14.55v1.3A14.56,14.56,0,0,1,127.93,249.38Zm-26.52-29.65a13.81,13.81,0,0,0-13.8,13.8v1.3a13.81,13.81,0,0,0,13.8,13.8h26.52a13.81,13.81,0,0,0,13.8-13.8v-1.3a13.81,13.81,0,0,0-13.8-13.8Z" transform="translate(0 0)"/></svg>